<svg width="64" height="64" fill="#DB2777" xmlns="http://www.w3.org/2000/svg"><mask id="prefix__a" maskUnits="userSpaceOnUse" x="-.186" y="1.75" width="61" height="61" fill="#000"><path fill="#fff" d="M-.186 1.75h61v61h-61z"/><path d="M27.137 2.51c-6.66.86-12.402 3.686-16.993 8.384-1.453 1.476-2.232 2.442-3.371 4.174-1.627 2.442-2.917 5.373-3.638 8.256-.65 2.593-.802 3.954-.79 7.094 0 2.441.267 7.116.453 8.14.058.313.023.371-.326.546-.616.29-1.069.72-1.348 1.302-.546 1.082-.546 1.035 1.465 9.977 2.069 9.221 1.999 9.024 3.15 9.71.883.535 1.43.581 2.905.279.93-.198 1.232-.233 1.279-.116.104.314.871 1.035 1.336 1.255.733.361 1.767.314 3.86-.15 2.01-.454 2.277-.57 2.882-1.233.58-.64.778-1.151.778-1.954 0-.86-4.544-21.198-4.881-21.86-.337-.652-1.104-1.28-1.871-1.501-.57-.163-.733-.163-1.535-.012l-.883.163-.105-1.105c-.174-2.058-.104-6.349.117-7.535 1.139-6.081 4.684-11.151 9.995-14.337 3.615-2.163 8.195-3.233 12.425-2.907 7.718.581 14.378 5.035 17.644 11.802 1.709 3.535 2.22 6.466 1.976 11.28-.07 1.465-.151 2.698-.174 2.744-.035.035-.454-.012-.953-.105-.814-.15-.965-.15-1.546.012-.767.221-1.535.849-1.872 1.5-.337.663-4.881 21-4.881 21.861 0 .768.197 1.291.697 1.872.605.675 1.046.873 2.952 1.303 2.139.477 3.139.523 3.87.163.466-.221 1.233-.942 1.338-1.256.046-.117.348-.082 1.278.116 1.476.302 2.023.256 2.906-.28 1.139-.685 1.092-.51 3.103-9.418 2-8.872 2.057-9.233 1.523-10.256-.268-.512-.79-1.023-1.441-1.395-.175-.105-.186-.233-.07-1.396.453-4.721.465-9.744.011-12.268C56.554 14.905 48.837 6.417 38.47 3.417c-2.522-.721-4.405-.989-7.439-1.035-1.79-.023-3.068.011-3.893.128zm6.822 1.511C44.2 5.36 52.672 12.184 55.927 21.696c1.383 4.093 1.639 7.605 1.069 14.826-.163 2.082-.163 2.082-.65 1.954-.326-.081-.384-.151-.384-.442 0-.942-1.035-2.174-2.104-2.488-.337-.105-.686-.186-.767-.186-.128 0-.151-.152-.105-.675.163-1.779.198-2.465.186-4.616 0-1.489-.058-2.745-.174-3.477-.547-3.57-1.965-7.012-4.092-9.896-1.034-1.395-3.556-3.884-4.916-4.849-3.115-2.21-6.544-3.581-10.263-4.105-1.581-.22-4.73-.22-6.37.012-9.46 1.314-17.19 8.465-19.038 17.57-.5 2.442-.558 4.175-.28 8.78.059 1.058.047 1.256-.104 1.256-.093 0-.43.081-.755.174-1.058.314-2.127 1.558-2.127 2.488 0 .338-.163.477-.57.477-.174 0-.22-.14-.279-.72a77.856 77.856 0 01-.36-7.361c-.012-3.21.116-4.291.767-6.861 2.162-8.442 8.764-15.489 17.19-18.315 1.849-.616 4.22-1.14 6.033-1.314 1.22-.128 4.881-.07 6.125.093zM11.992 36.406c.209.116.453.337.546.489.093.15 1.22 5.011 2.522 10.802l2.348 10.535-.22.442c-.117.244-.35.547-.512.663-.407.29-3.894 1.058-4.394.965-.209-.035-.546-.21-.744-.395-.406-.36-.162.651-3.405-13.92l-1.72-7.697.22-.442c.128-.244.35-.535.512-.651.29-.21 3.487-1 4.126-1.012.198-.012.511.093.72.221zm39.762.175c1 .22 1.953.5 2.115.616.163.116.384.407.512.651l.22.442-1.708 7.64c-3.347 15.012-3.01 13.616-3.417 13.977-.198.174-.535.36-.744.395-.5.093-3.987-.674-4.393-.965-.163-.116-.396-.419-.512-.663l-.22-.442 2.347-10.535c1.302-5.79 2.43-10.651 2.522-10.803.221-.337.837-.72 1.186-.72.151 0 1.092.186 2.092.407zM5.32 40.209c.035.186.965 4.325 2.057 9.22 1.093 4.896 2 8.978 2.011 9.07.023.175-1.267.559-1.987.57-.512.012-1.116-.279-1.36-.65-.21-.314-3.778-16.07-3.778-16.675 0-.454.36-1.059.744-1.256.244-.14 1.755-.547 2.115-.582.07-.011.163.128.198.303zm51.548-.082c.535.128 1.081.314 1.209.407.384.256.674.78.674 1.198 0 .593-3.568 16.373-3.777 16.686-.244.373-.849.663-1.36.652-.72-.012-2.011-.396-1.988-.57.012-.093.918-4.175 2.011-9.07 1.093-4.896 2.022-9.035 2.057-9.221.035-.175.093-.314.14-.314.035 0 .511.104 1.034.232z"/></mask><path d="M27.137 2.51c-6.66.86-12.402 3.686-16.993 8.384-1.453 1.476-2.232 2.442-3.371 4.174-1.627 2.442-2.917 5.373-3.638 8.256-.65 2.593-.802 3.954-.79 7.094 0 2.441.267 7.116.453 8.14.058.313.023.371-.326.546-.616.29-1.069.72-1.348 1.302-.546 1.082-.546 1.035 1.465 9.977 2.069 9.221 1.999 9.024 3.15 9.71.883.535 1.43.581 2.905.279.93-.198 1.232-.233 1.279-.116.104.314.871 1.035 1.336 1.255.733.361 1.767.314 3.86-.15 2.01-.454 2.277-.57 2.882-1.233.58-.64.778-1.151.778-1.954 0-.86-4.544-21.198-4.881-21.86-.337-.652-1.104-1.28-1.871-1.501-.57-.163-.733-.163-1.535-.012l-.883.163-.105-1.105c-.174-2.058-.104-6.349.117-7.535 1.139-6.081 4.684-11.151 9.995-14.337 3.615-2.163 8.195-3.233 12.425-2.907 7.718.581 14.378 5.035 17.644 11.802 1.709 3.535 2.22 6.466 1.976 11.28-.07 1.465-.151 2.698-.174 2.744-.035.035-.454-.012-.953-.105-.814-.15-.965-.15-1.546.012-.767.221-1.535.849-1.872 1.5-.337.663-4.881 21-4.881 21.861 0 .768.197 1.291.697 1.872.605.675 1.046.873 2.952 1.303 2.139.477 3.139.523 3.87.163.466-.221 1.233-.942 1.338-1.256.046-.117.348-.082 1.278.116 1.476.302 2.023.256 2.906-.28 1.139-.685 1.092-.51 3.103-9.418 2-8.872 2.057-9.233 1.523-10.256-.268-.512-.79-1.023-1.441-1.395-.175-.105-.186-.233-.07-1.396.453-4.721.465-9.744.011-12.268C56.554 14.905 48.837 6.417 38.47 3.417c-2.522-.721-4.405-.989-7.439-1.035-1.79-.023-3.068.011-3.893.128zm6.822 1.511C44.2 5.36 52.672 12.184 55.927 21.696c1.383 4.093 1.639 7.605 1.069 14.826-.163 2.082-.163 2.082-.65 1.954-.326-.081-.384-.151-.384-.442 0-.942-1.035-2.174-2.104-2.488-.337-.105-.686-.186-.767-.186-.128 0-.151-.152-.105-.675.163-1.779.198-2.465.186-4.616 0-1.489-.058-2.745-.174-3.477-.547-3.57-1.965-7.012-4.092-9.896-1.034-1.395-3.556-3.884-4.916-4.849-3.115-2.21-6.544-3.581-10.263-4.105-1.581-.22-4.73-.22-6.37.012-9.46 1.314-17.19 8.465-19.038 17.57-.5 2.442-.558 4.175-.28 8.78.059 1.058.047 1.256-.104 1.256-.093 0-.43.081-.755.174-1.058.314-2.127 1.558-2.127 2.488 0 .338-.163.477-.57.477-.174 0-.22-.14-.279-.72a77.856 77.856 0 01-.36-7.361c-.012-3.21.116-4.291.767-6.861 2.162-8.442 8.764-15.489 17.19-18.315 1.849-.616 4.22-1.14 6.033-1.314 1.22-.128 4.881-.07 6.125.093zM11.992 36.406c.209.116.453.337.546.489.093.15 1.22 5.011 2.522 10.802l2.348 10.535-.22.442c-.117.244-.35.547-.512.663-.407.29-3.894 1.058-4.394.965-.209-.035-.546-.21-.744-.395-.406-.36-.162.651-3.405-13.92l-1.72-7.697.22-.442c.128-.244.35-.535.512-.651.29-.21 3.487-1 4.126-1.012.198-.012.511.093.72.221zm39.762.175c1 .22 1.953.5 2.115.616.163.116.384.407.512.651l.22.442-1.708 7.64c-3.347 15.012-3.01 13.616-3.417 13.977-.198.174-.535.36-.744.395-.5.093-3.987-.674-4.393-.965-.163-.116-.396-.419-.512-.663l-.22-.442 2.347-10.535c1.302-5.79 2.43-10.651 2.522-10.803.221-.337.837-.72 1.186-.72.151 0 1.092.186 2.092.407zM5.32 40.209c.035.186.965 4.325 2.057 9.22 1.093 4.896 2 8.978 2.011 9.07.023.175-1.267.559-1.987.57-.512.012-1.116-.279-1.36-.65-.21-.314-3.778-16.07-3.778-16.675 0-.454.36-1.059.744-1.256.244-.14 1.755-.547 2.115-.582.07-.011.163.128.198.303zm51.548-.082c.535.128 1.081.314 1.209.407.384.256.674.78.674 1.198 0 .593-3.568 16.373-3.777 16.686-.244.373-.849.663-1.36.652-.72-.012-2.011-.396-1.988-.57.012-.093.918-4.175 2.011-9.07 1.093-4.896 2.022-9.035 2.057-9.221.035-.175.093-.314.14-.314.035 0 .511.104 1.034.232z" fill="#8F8F8F"/><path d="M27.137 2.51c-6.66.86-12.402 3.686-16.993 8.384-1.453 1.476-2.232 2.442-3.371 4.174-1.627 2.442-2.917 5.373-3.638 8.256-.65 2.593-.802 3.954-.79 7.094 0 2.441.267 7.116.453 8.14.058.313.023.371-.326.546-.616.29-1.069.72-1.348 1.302-.546 1.082-.546 1.035 1.465 9.977 2.069 9.221 1.999 9.024 3.15 9.71.883.535 1.43.581 2.905.279.93-.198 1.232-.233 1.279-.116.104.314.871 1.035 1.336 1.255.733.361 1.767.314 3.86-.15 2.01-.454 2.277-.57 2.882-1.233.58-.64.778-1.151.778-1.954 0-.86-4.544-21.198-4.881-21.86-.337-.652-1.104-1.28-1.871-1.501-.57-.163-.733-.163-1.535-.012l-.883.163-.105-1.105c-.174-2.058-.104-6.349.117-7.535 1.139-6.081 4.684-11.151 9.995-14.337 3.615-2.163 8.195-3.233 12.425-2.907 7.718.581 14.378 5.035 17.644 11.802 1.709 3.535 2.22 6.466 1.976 11.28-.07 1.465-.151 2.698-.174 2.744-.035.035-.454-.012-.953-.105-.814-.15-.965-.15-1.546.012-.767.221-1.535.849-1.872 1.5-.337.663-4.881 21-4.881 21.861 0 .768.197 1.291.697 1.872.605.675 1.046.873 2.952 1.303 2.139.477 3.139.523 3.87.163.466-.221 1.233-.942 1.338-1.256.046-.117.348-.082 1.278.116 1.476.302 2.023.256 2.906-.28 1.139-.685 1.092-.51 3.103-9.418 2-8.872 2.057-9.233 1.523-10.256-.268-.512-.79-1.023-1.441-1.395-.175-.105-.186-.233-.07-1.396.453-4.721.465-9.744.011-12.268C56.554 14.905 48.837 6.417 38.47 3.417c-2.522-.721-4.405-.989-7.439-1.035-1.79-.023-3.068.011-3.893.128zm6.822 1.511C44.2 5.36 52.672 12.184 55.927 21.696c1.383 4.093 1.639 7.605 1.069 14.826-.163 2.082-.163 2.082-.65 1.954-.326-.081-.384-.151-.384-.442 0-.942-1.035-2.174-2.104-2.488-.337-.105-.686-.186-.767-.186-.128 0-.151-.152-.105-.675.163-1.779.198-2.465.186-4.616 0-1.489-.058-2.745-.174-3.477-.547-3.57-1.965-7.012-4.092-9.896-1.034-1.395-3.556-3.884-4.916-4.849-3.115-2.21-6.544-3.581-10.263-4.105-1.581-.22-4.73-.22-6.37.012-9.46 1.314-17.19 8.465-19.038 17.57-.5 2.442-.558 4.175-.28 8.78.059 1.058.047 1.256-.104 1.256-.093 0-.43.081-.755.174-1.058.314-2.127 1.558-2.127 2.488 0 .338-.163.477-.57.477-.174 0-.22-.14-.279-.72a77.856 77.856 0 01-.36-7.361c-.012-3.21.116-4.291.767-6.861 2.162-8.442 8.764-15.489 17.19-18.315 1.849-.616 4.22-1.14 6.033-1.314 1.22-.128 4.881-.07 6.125.093zM11.992 36.406c.209.116.453.337.546.489.093.15 1.22 5.011 2.522 10.802l2.348 10.535-.22.442c-.117.244-.35.547-.512.663-.407.29-3.894 1.058-4.394.965-.209-.035-.546-.21-.744-.395-.406-.36-.162.651-3.405-13.92l-1.72-7.697.22-.442c.128-.244.35-.535.512-.651.29-.21 3.487-1 4.126-1.012.198-.012.511.093.72.221zm39.762.175c1 .22 1.953.5 2.115.616.163.116.384.407.512.651l.22.442-1.708 7.64c-3.347 15.012-3.01 13.616-3.417 13.977-.198.174-.535.36-.744.395-.5.093-3.987-.674-4.393-.965-.163-.116-.396-.419-.512-.663l-.22-.442 2.347-10.535c1.302-5.79 2.43-10.651 2.522-10.803.221-.337.837-.72 1.186-.72.151 0 1.092.186 2.092.407zM5.32 40.209c.035.186.965 4.325 2.057 9.22 1.093 4.896 2 8.978 2.011 9.07.023.175-1.267.559-1.987.57-.512.012-1.116-.279-1.36-.65-.21-.314-3.778-16.07-3.778-16.675 0-.454.36-1.059.744-1.256.244-.14 1.755-.547 2.115-.582.07-.011.163.128.198.303zm51.548-.082c.535.128 1.081.314 1.209.407.384.256.674.78.674 1.198 0 .593-3.568 16.373-3.777 16.686-.244.373-.849.663-1.36.652-.72-.012-2.011-.396-1.988-.57.012-.093.918-4.175 2.011-9.07 1.093-4.896 2.022-9.035 2.057-9.221.035-.175.093-.314.14-.314.035 0 .511.104 1.034.232z" stroke="#DB2777" stroke-width=".25" mask="url(#DB2777)"/></svg>