<svg width="64" height="64" fill="none" xmlns="http://www.w3.org/2000/svg"><g clip-path="url(#prefix__clip0_309_939)" fill="#DB2777"><path d="M42.2.2c-1.263.4-2.25 1.325-2.688 2.487-.212.575-.237.963-.237 3.2.013 2.238-.012 2.675-.25 3.513-.462 1.713-1.1 2.675-2.262 3.463a12.393 12.393 0 01-4.138 1.825c-1.325.3-1.462.274-1.637-.35-.4-1.525-1.726-3.738-2.825-4.713-1.638-1.463-5.038-2.275-7.013-1.688a3.01 3.01 0 00-2.075 2.25c-.037.2-.3 3.263-.575 6.8l-.512 6.426-4.438 10.7C11.112 40 9.038 44.912 8.963 45.024c-.088.113-1.613 1.45-3.4 2.975-1.788 1.513-3.525 3.075-3.85 3.475a7.33 7.33 0 00-1.338 6.9c.325.975.725 1.663 1.938 3.25C3.7 63.45 4.438 63.85 6.638 63.962c3.312.175 7.137-.637 10.437-2.212 2.375-1.125-.512.962 32.188-23.212 9.15-6.775 9.437-6.988 10.987-8.613 1.3-1.363 2.2-2.588 2.875-3.925.862-1.712 1.063-2.825.688-3.887-.276-.763-.688-1.25-1.813-2.113-.538-.425-1.263-1.113-1.6-1.525-.6-.725-.8-1.05-2.313-3.813-1.85-3.375-4.462-6.787-7.45-9.762C48.813 3.087 46.213.937 45.3.487 44.362.025 43.125-.1 42.2.2zM44 2.25c.987.275 5.3 4.125 7.487 6.687 1.788 2.088 4.563 6.05 4.488 6.388-.025.075-.938.813-2.038 1.637-1.162.863-2.137 1.7-2.337 1.988-.475.688-.863 1.6-.962 2.275l-.075.575-1.25.7c-5.263 2.938-9.288 7.038-12.2 12.425l-.675 1.238-1.376.825c-5.187 3.15-7.65 5.262-11.874 10.2-6.038 7.075-12.375 10.937-17.913 10.937-1.062 0-2.462-.188-2.75-.362-.087-.05-.225-.438-.3-.863-.237-1.313.225-3.012 1.113-4.087.312-.363 6.612-5.813 7.1-6.138.137-.087 2.474-1.125 5.187-2.313 2.863-1.237 5.288-2.375 5.775-2.7 1.05-.687 2.075-1.812 2.638-2.887.237-.462 2.075-5.538 4.075-11.262 2.012-5.738 3.662-10.45 3.675-10.463.012-.025.462-.125.975-.238 1.35-.274 2.55-.7 3.825-1.362 2.087-1.075 3.262-2.275 4.012-4.1.663-1.6.825-2.625.825-5.438.013-2.875.05-2.975 1.075-3.512.612-.3.85-.325 1.5-.15zm-19.3 7.925c1.45.387 2.4 1.15 3.275 2.612.438.725 1.05 2.113.962 2.188-.024.025-.512-.012-1.075-.088-2.937-.4-4.712.088-6.387 1.738-.475.45-.85.75-.85.663 0-.813.538-6.663.625-6.888a.885.885 0 01.4-.4c.363-.163 2.213-.05 3.05.175zm3.375 6.863l1.387.15-3.524 10.075C24 32.8 22.262 37.612 22.063 37.95c-.513.875-1.525 1.837-2.413 2.287-.65.325-7.612 3.388-7.712 3.388-.013 0 .425-1.112.987-2.462l1.025-2.45 3-.85c3.238-.925 3.55-1.088 3.55-1.876 0-.487-.488-.987-.962-.987-.2 0-1.238.25-2.313.563-1.075.312-2.013.562-2.088.562-.062 0 .125-.575.413-1.275l.537-1.288 1.863-.524C21.938 31.9 22 31.863 22 31.063c0-.55-.462-1.063-.938-1.063-.187 0-1.112.225-2.062.5-.95.275-1.762.5-1.788.5-.062 0 .9-2.4 1.026-2.525.037-.05 1.125-.388 2.387-.75 2.55-.713 2.875-.9 2.875-1.65 0-.325-.087-.5-.387-.75-.213-.175-.463-.325-.575-.325-.15 0-1.038.238-3.063.825-.163.05-.088-.212.325-1.212.3-.7.625-1.313.712-1.363.1-.05 1.026-.337 2.05-.625 1.425-.387 1.938-.587 2.163-.825.35-.387.35-.913.012-1.35-.324-.425-.837-.425-2.212-.025-.563.162-1.025.25-1.025.188 0-.325.775-1.763 1.2-2.238 1.275-1.4 2.3-1.663 5.375-1.337zm30.95 3.137c.388.438 1.138 1.113 1.663 1.512.524.388 1.012.863 1.075 1.05.512 1.3-1.85 4.913-4.8 7.363-.588.487-.963.712-1 .612-.038-.075-.738-1.787-1.563-3.787-1.688-4.088-1.825-4.512-1.725-5.225.163-1.063.65-1.637 2.575-3.075l1.8-1.337.625 1.05c.35.575.963 1.4 1.35 1.837zm-6.475 7.85c.888 2.15 1.613 3.975 1.625 4.063.013.075-4.063 3.162-9.05 6.837-10.388 7.688-9.388 7.188-8.813 4.4 1.55-7.688 6.226-14.288 13-18.363.763-.462 1.438-.837 1.5-.837.076 0 .85 1.762 1.738 3.9zm-17.475 11.75c-.738 2.563-1.325 5.6-1.325 6.875 0 .3-.075.638-.15.75-.188.225-14.35 10.688-15.288 11.288-1.6 1.024-3.812 1.974-5.75 2.474-1.962.5-2.987.638-5 .638-2.162.013-2.55-.1-3.187-.975l-.387-.513 1.85-.087c2.175-.087 3.912-.488 6.037-1.388C16.25 57 20.95 53.225 25.137 48.188c1.888-2.274 3.776-4.162 5.713-5.724 1.438-1.15 3.987-2.95 4.2-2.963.05 0 .063.125.025.275z"/><path d="M47.75 29.337c-.3.388-.3.726.013 2.476.25 1.45 1.087 1.987 1.875 1.2.425-.425.425-.463.175-1.95C49.5 29.262 49.338 29 48.45 29c-.325 0-.5.087-.7.337zM43.9 32.125c-.563.237-.65.775-.375 2.313.275 1.562.513 1.937 1.175 1.937.575 0 .787-.112 1-.525.162-.325.162-.488-.063-1.725-.287-1.563-.4-1.837-.837-2-.375-.15-.525-.15-.9 0z"/></g><defs><clipPath id="prefix__clip0_309_939"><path fill="#fff" d="M0 0h64v64H0z"/></clipPath></defs></svg>