<svg width="64" height="64" fill="none" xmlns="http://www.w3.org/2000/svg"><path d="M20.313.15c-.525.3-.55.462-.563 2.763v2.212L13.363 32.25C9.413 49.075 7 59.55 7.025 59.837c.025.313.137.525.35.688C7.7 60.763 18.288 64 18.738 64c.137 0 .387-.125.562-.288.225-.187 2.475-5.325 7.775-17.712 4.113-9.587 7.5-17.475 7.537-17.525.075-.088 4.763 10.7 4.763 10.938 0 .05-1.15.087-2.563.087-2.562 0-2.575 0-2.874.313l-.313.3v10.375l.288.325c.25.287.712.4 5.875 1.437 3.9.775 5.675 1.087 5.875 1.013.15-.063 2.725-2.313 5.712-5 4.425-3.975 5.462-4.975 5.6-5.35.125-.35.15-1.075.125-2.663l-.05-2.188-3.675-16.124L49.7 5.813l-.063-2.6L49.563.6l-.35-.3-.35-.3h-14.15C24.3.013 20.5.05 20.313.15zm5.812 3.038V4.25h-4.25V2.125h4.25v1.063zm5.375 0V4.25h-3.25V2.125h3.25v1.063zm4.25 0V4.25h-2.125V2.125h2.125v1.063zm5.35.024l.038 1.038h-3.263V2.112l1.6.038 1.587.038.038 1.024zm6.4-.025V4.25h-4.25V2.125h4.25v1.063zM26.125 7.776c0 1.662-.25 2.362-1.1 3.125-.712.637-1.512.85-3.237.85-1.3 0-1.425-.025-1.363-.225.075-.225 1.2-5.025 1.2-5.1 0-.025 1.012-.05 2.25-.05h2.25v1.4zm7.5 8.063v9.475l-7.762 18.125c-4.276 9.962-7.776 18.137-7.788 18.15-.037.05-8.475-2.463-8.65-2.575-.1-.05 1.537-7.213 5.15-22.575 2.913-12.376 5.3-22.513 5.3-22.538 0-.013.75-.025 1.675-.025 2.675 0 3.762-.325 5.025-1.525 1.225-1.162 1.675-2.4 1.675-4.662V6.375h5.375v9.463zm4.25-1.175v8.287l-.65.488c-.363.262-.85.612-1.063.787l-.412.3V6.375h2.125v8.287zm3.263-6.538c.087 1.938.187 2.338.862 3.338.563.85 1.237 1.437 2.163 1.862.937.425 1.762.55 3.6.55 1.562 0 1.612.012 1.675.275 1.437 6.1 5.437 24.275 5.437 24.725v.625h-13.1l-2.7-6.3c-1.488-3.463-2.7-6.35-2.7-6.413.013-.05.737-.637 1.612-1.287.888-.65 1.7-1.337 1.813-1.525.175-.288.2-1.288.2-8.975V6.363l.538.037.525.037.075 1.688zM48.275 9c.325 1.412.587 2.613.587 2.675.013.05-.737.087-1.637.05-1.55-.037-1.712-.075-2.325-.4-1.275-.7-1.65-1.5-1.65-3.512V6.375l2.212.025 2.225.037L48.276 9zm6.6 32.938c0 .25-.962 1.174-4.925 4.75l-4.925 4.437-4.362-.875c-2.388-.475-4.475-.9-4.625-.938l-.288-.062v-7.625h19.125v.313z" fill="#DB2777"/></svg>